<?xml version="1.0" standalone="no"?>
<!DOCTYPE svg PUBLIC "-//W3C//DTD SVG 20010904//EN"
 "http://www.w3.org/TR/2001/REC-SVG-20010904/DTD/svg10.dtd">
<svg version="1.0" xmlns="http://www.w3.org/2000/svg"
 width="472.000000pt" height="472.000000pt" viewBox="0 0 472.000000 472.000000"
 preserveAspectRatio="xMidYMid meet">
<metadata>
Created by potrace 1.11, written by Peter Selinger 2001-2013
</metadata>
<g transform="translate(0.000000,472.000000) scale(0.100000,-0.100000)"
fill="#000000" stroke="none">
<path d="M804 4451 c-253 -62 -419 -265 -427 -520 l-2 -76 169 0 169 0 2 55
c8 172 164 287 339 250 184 -38 231 -282 87 -442 -24 -27 -168 -147 -320 -266
-152 -119 -294 -235 -316 -259 -92 -96 -134 -211 -135 -370 l0 -63 620 0 620
0 0 155 0 155 -360 0 c-198 0 -360 4 -360 8 0 14 60 65 249 213 310 242 398
337 441 475 45 146 33 292 -35 430 -61 125 -192 225 -337 259 -89 21 -312 19
-404 -4z"/>
<path d="M3492 4455 c-101 -22 -209 -80 -278 -149 -84 -84 -116 -155 -122
-262 l-5 -84 165 0 165 0 6 41 c8 63 47 113 114 146 50 24 70 28 139 27 67 0
90 -5 137 -28 64 -31 90 -61 107 -125 20 -74 -2 -151 -57 -203 -51 -49 -96
-61 -250 -66 l-143 -5 0 -128 0 -129 88 0 c222 0 347 -37 386 -114 29 -58 27
-169 -5 -226 -47 -85 -159 -127 -312 -117 -146 10 -227 74 -243 190 l-7 47
-168 0 -169 0 0 -53 c0 -218 151 -392 399 -459 111 -31 382 -30 494 0 226 62
367 201 399 395 13 82 -1 186 -37 265 -32 70 -115 151 -193 189 l-63 30 59 36
c122 75 183 176 190 313 12 226 -133 400 -386 465 -91 23 -311 25 -410 4z"/>
<path d="M506 1938 c-2 -7 -12 -119 -21 -248 -9 -129 -24 -335 -34 -457 l-16
-223 30 -5 c16 -3 85 -14 151 -24 l122 -18 42 43 c56 57 128 84 223 84 84 0
136 -20 184 -71 99 -104 103 -285 9 -396 -45 -54 -118 -83 -205 -83 -147 1
-256 87 -277 219 l-7 41 -168 0 -169 0 0 -33 c0 -52 37 -183 67 -240 65 -121
214 -232 363 -273 89 -24 300 -25 390 -1 288 76 453 301 437 597 -18 325 -216
520 -528 520 -114 0 -196 -22 -279 -74 -30 -19 -56 -34 -56 -33 -4 4 26 342
31 355 3 9 86 12 365 12 l360 0 0 160 0 160 -505 0 c-396 0 -506 -3 -509 -12z"/>
<path d="M3100 1765 l0 -165 396 0 c390 0 396 0 383 -19 -8 -11 -43 -61 -79
-110 -106 -148 -196 -296 -281 -463 -122 -242 -182 -446 -196 -665 l-6 -103
205 0 205 0 6 163 c7 186 24 287 74 442 75 232 253 554 457 825 l56 75 0 92 0
93 -610 0 -610 0 0 -165z"/>
</g>
</svg>
